<svg width="1836" height="224" viewBox="0 0 1836 224" fill="none" xmlns="http://www.w3.org/2000/svg">
<path d="M198.487 32.7518C198.487 19.0966 209.577 8.02724 223.256 8.02724V4.08583H151.297V8.02751C164.976 8.02751 176.066 19.0968 176.066 32.7518V92.1371C176.066 102.149 167.935 110.265 157.905 110.265H65.3308C55.3154 110.265 47.1703 102.134 47.1703 92.1156V32.7314C47.1703 19.0876 58.2506 8.02724 71.9192 8.02724H71.9394V4.08583H0V8.02724C13.6685 8.02724 24.7489 19.0876 24.7489 32.7314V191.18C24.7489 204.823 13.6685 215.884 0 215.884V219.845H71.9394V215.884H71.9192C58.2506 215.884 47.1703 204.823 47.1703 191.18V132.231C47.1703 122.207 55.3108 114.081 65.3524 114.081H157.905C167.935 114.081 176.066 122.198 176.066 132.21V191.159C176.066 204.814 164.976 215.884 151.297 215.884V219.845H223.256V215.884C209.577 215.884 198.487 204.814 198.487 191.159V32.7518Z" fill="#E95D6A"/>
<path d="M279.222 191.18L279.222 32.7311C279.222 19.0826 290.297 8.02695 303.97 8.02695H303.991V4.08609H232.051V8.02695C245.724 8.02695 256.8 19.0826 256.8 32.7311V191.18C256.8 197.983 254.036 204.164 249.548 208.645C245.08 213.125 238.888 215.883 232.051 215.883V219.845H303.991V215.883H303.971C290.297 215.883 279.222 204.807 279.222 191.18Z" fill="#E95D6A"/>
<path d="M578.11 215.904C564.417 215.904 553.32 204.828 553.32 191.159V32.7516C553.32 25.9272 556.083 19.7462 560.572 15.2661C565.06 10.7856 571.253 8.02724 578.089 8.02724V4.08583H530.898L530.878 4.12756L454.076 163.883C449.463 173.507 435.603 173.051 431.572 163.177L367.196 4.08583H312.691V8.02724C319.528 8.02724 325.741 10.7856 330.229 15.2661C334.697 19.7464 337.482 25.9275 337.482 32.7723V191.159C337.482 204.828 326.385 215.904 312.691 215.904V219.845H366.095V215.904C359.258 215.904 353.045 213.145 348.556 208.665C344.089 204.185 341.305 198.004 341.305 191.159V31.4624C341.305 26.4492 348.229 25.1036 350.113 29.7508L426.439 218C426.896 219.12 427.977 219.845 429.161 219.845C429.722 219.845 430.263 219.68 430.719 219.389C431.197 219.098 431.572 218.684 431.821 218.166L522.515 29.4524C524.544 25.2307 530.898 26.6731 530.898 31.3558V191.159C530.898 198.004 528.114 204.185 523.647 208.665C519.158 213.145 512.944 215.904 506.109 215.904V219.845H578.11V215.904Z" fill="#E95D6A"/>
<path d="M634.025 215.903V131.899C634.025 121.901 642.138 113.774 652.182 113.774H674.816C694.736 113.774 710.879 129.888 710.879 149.772H714.824V73.9227H710.879C710.879 93.8067 694.736 109.92 674.816 109.92H652.21C642.166 109.92 634.053 101.794 634.053 91.7959V8.01518H696.918C726.994 8.01518 752.118 30.8872 754.915 60.769V60.7971H758.86L753.936 4.10542H586.854V8.043C600.536 8.043 611.615 19.13 611.615 32.7583V191.16C611.615 198.002 608.817 204.174 604.369 208.642C599.892 213.11 593.681 215.875 586.854 215.875V219.841H757.881L762.805 163.149H758.86C756.063 193.031 730.939 215.903 700.863 215.903H634.025Z" fill="#E95D6A"/>
<path d="M1036.94 215.904C1023.25 215.904 1012.15 204.828 1012.15 191.159V32.7516C1012.15 25.9272 1014.92 19.7462 1019.4 15.2661C1023.89 10.7856 1030.09 8.02724 1036.92 8.02724V4.08583H989.73L989.71 4.12756L912.908 163.883C908.295 173.507 894.435 173.051 890.404 163.177L826.028 4.08583H771.523V8.02724C778.36 8.02724 784.573 10.7856 789.061 15.2661C793.529 19.7464 796.314 25.9275 796.314 32.7723V191.159C796.314 204.828 785.217 215.904 771.523 215.904V219.845H824.927V215.904C818.09 215.904 811.877 213.145 807.388 208.665C802.921 204.185 800.137 198.004 800.137 191.159V31.4624C800.137 26.4492 807.061 25.1036 808.945 29.7508L885.271 218C885.728 219.12 886.809 219.845 887.993 219.845C888.554 219.845 889.095 219.68 889.551 219.389C890.03 219.098 890.404 218.684 890.653 218.166L981.347 29.4524C983.376 25.2307 989.73 26.6731 989.73 31.3558V191.159C989.73 198.004 986.946 204.185 982.479 208.665C977.99 213.145 971.776 215.904 964.941 215.904V219.845H1036.94V215.904Z" fill="#E95D6A"/>
<path d="M1245.03 211.351C1240.86 208.447 1237.53 204.285 1235.68 199.315L1163.16 4.10542H1115.63V8.043C1125.79 8.043 1133.4 16.3374 1133.4 25.7207C1133.4 27.7315 1133.03 29.7982 1132.3 31.8368L1071.09 198.253C1067.2 208.866 1057.07 215.903 1045.77 215.903V219.841H1098.76V215.903C1096.97 215.903 1095.21 215.624 1093.53 215.093C1091.85 214.563 1090.25 213.753 1088.8 212.719C1085.08 210.066 1083.18 205.933 1083.18 201.772C1083.18 198.365 1084.46 194.902 1087.12 192.277L1159.02 120.505C1165.35 114.193 1176.09 116.539 1179.2 124.889L1202.81 188.088C1207.84 201.577 1197.86 215.903 1183.45 215.903V219.841H1259.57V215.903C1254.26 215.903 1249.19 214.255 1245.03 211.351ZM1162.77 111.205L1093.05 180.799C1088.8 185.044 1081.78 180.548 1083.85 174.934L1140.42 21.0012L1166.94 92.0471C1169.43 98.6939 1167.81 106.178 1162.77 111.205Z" fill="#E95D6A"/>
<path d="M1440.34 60.769H1444.26L1442.88 44.9065L1439.33 4.07733H1273.31L1269.76 44.9065L1268.39 60.769H1272.33V60.7411C1275.07 31.3901 1299.36 8.79709 1328.74 8.01518H1345.1V191.188C1345.1 198.002 1342.33 204.202 1337.86 208.67C1333.38 213.138 1327.17 215.903 1320.34 215.903V219.841H1392.33V215.903C1378.65 215.903 1367.57 204.816 1367.57 191.188V8.01518H1383.94C1413.31 8.82491 1437.6 31.3901 1440.34 60.769Z" fill="#E95D6A"/>
<path d="M1479.14 48.0298C1479.14 23.5708 1500.2 3.37563 1528.57 3.37563C1561.75 3.37563 1584.37 32.4155 1603.5 75.1434L1607.38 74.4011L1596.62 18.5208C1579.72 9.9799 1555.03 -0.000137329 1533.97 -0.000137329C1490.62 -0.000137329 1459.39 24.4588 1459.39 57.4581C1459.39 131.998 1591.37 110.49 1591.37 174.138C1591.37 200.948 1570.01 220.555 1540.36 220.555C1504.02 220.555 1475.64 190.328 1456.84 141.722L1452.97 142.465L1463.72 198.345C1463.72 198.345 1491.97 223.931 1537.17 223.931C1582.44 223.931 1611.13 198.885 1611.13 163.822C1611.13 87.2188 1479.14 107.839 1479.14 48.0298Z" fill="#E95D6A"/>
<path d="M1835.29 4.0858H1781.53V8.02721C1795.32 8.02721 1806.49 19.18 1806.49 32.9381V137.707C1806.49 172.864 1777.94 201.385 1742.7 201.385H1731.27C1696.03 201.385 1667.47 172.864 1667.47 137.707V32.9381C1667.47 19.18 1678.65 8.02721 1692.43 8.02721H1692.43V4.0858H1619.93V8.02721C1633.71 8.02721 1644.89 19.18 1644.89 32.9381V137.603C1644.89 185.268 1683.62 223.931 1731.37 223.931C1753.17 223.931 1772.93 215.095 1787.21 200.825C1801.5 186.575 1810.34 166.849 1810.34 145.091V32.9381C1810.34 19.18 1821.51 8.02721 1835.29 8.02721H1835.29V4.0858Z" fill="#E95D6A"/>
</svg>
