<?xml version="1.0" encoding="UTF-8"?>
<svg id="_图层_2" data-name="图层 2" xmlns="http://www.w3.org/2000/svg" viewBox="0 0 16.76 74.5">
  <g id="_图层_1-2" data-name="图层 1">
    <path d="M13.82,5.75c.07,0,.12-.02.15-.07.04-.04.07-.09.11-.15.08.04.17.08.26.13s.17.09.26.15v.04h-4.88l-.04-.11h4.13ZM11.75.13c.1.01.2.03.3.05s.19.04.3.06v.04l-.19.02-.25,1.42h4.08c.07,0,.12-.02.15-.07.04-.04.07-.09.11-.15.08.04.17.08.26.13.09.04.17.09.26.15v.04h-4.88l-.32,1.81h3.72s.06-.01.09-.03c.03-.02.06-.05.09-.08.17.04.32.09.44.13-.01.04-.03.11-.06.2-.03.09-.04.17-.04.22-.02.42-.05.82-.07,1.21-.02.39-.05.75-.09,1.08-.04.33-.08.61-.12.85-.04.24-.1.42-.16.53-.1.19-.21.35-.33.49-.12.13-.24.2-.38.2-.07,0-.12-.02-.16-.06-.04-.04-.06-.09-.06-.15,0-.08-.04-.14-.11-.16-.07-.02-.16-.05-.28-.08-.11-.02-.25-.05-.41-.08-.16-.03-.3-.05-.4-.08v-.09c.23.02.47.04.7.07.23.03.45.05.65.06.18,0,.31-.11.39-.32.06-.11.11-.29.16-.54.04-.25.08-.55.12-.9.03-.34.06-.72.08-1.13.02-.41.04-.83.06-1.25h-3.72s-.08.02-.12.05c-.04.03-.08.07-.11.11-.12-.05-.23-.1-.32-.15-.09-.05-.14-.1-.14-.16.04-.05.08-.09.12-.14.04-.04.06-.08.06-.11l.6-3.22Z" fill="#332527"/>
    <path d="M11.06,13.95c.08.01.15.03.23.05.07.02.15.04.24.05l-.02.05-.13.03-.23,1.55h.73s.06-.01.09-.03.06-.05.09-.08c.08.02.16.05.22.07.07.02.12.04.17.06-.03.03-.06.09-.09.17-.03.08-.05.16-.06.23-.05.73-.12,1.38-.21,1.95s-.23,1.08-.41,1.56c.16.12.32.25.46.38.15.13.28.26.4.39-.01.08-.03.16-.06.23-.03.07-.07.13-.13.18-.08-.11-.2-.24-.34-.39-.14-.16-.3-.32-.46-.48-.19.42-.41.82-.68,1.2-.27.38-.59.78-.97,1.2l-.09-.04c.36-.47.67-.91.91-1.32.24-.41.45-.83.61-1.26l-.68-.67-.07.52s-.09.03-.13.03c-.04,0-.07,0-.1,0-.04,0-.07-.02-.09-.05l.54-3.73h-.84l-.04-.11h.9l.25-1.73ZM11.12,15.79l-.46,3.13c.12.07.24.15.37.23s.26.17.39.27c.08-.25.16-.51.21-.78.06-.27.11-.55.16-.85.04-.3.08-.61.11-.94.03-.33.06-.69.08-1.06h-.87ZM14.43,13.93c.08,0,.15.01.23.01.07,0,.15.01.23.02v.06l-.15.07v2.1l.87-.29s.08-.03.1-.05.04-.04.06-.07c.07.01.13.03.19.05.06.02.13.06.2.11-.02.03-.05.08-.07.16s-.03.14-.03.19v2.81c0,.14-.04.25-.13.35-.08.09-.17.14-.27.14-.05,0-.08-.01-.1-.04-.02-.03-.03-.06-.03-.09,0-.04-.01-.07-.03-.09-.02-.02-.04-.04-.05-.05l-.54-.32v-.07s.09.03.17.06c.08.03.16.06.23.09.08.03.15.06.22.09.07.02.11.04.13.04.05,0,.08-.09.08-.26v-2.98l-1.02.33v3.74s-.09.02-.13.04c-.04.01-.07.02-.1.02s-.05-.01-.07-.04v-3.65l-.96.31v4.46c0,.19.04.32.11.39s.19.12.35.13c.11.01.24.02.39.02.15,0,.3,0,.47,0,.16,0,.32,0,.47-.02s.28-.02.39-.03c.16-.01.27-.04.36-.09.08-.04.14-.12.16-.21.01-.04.03-.13.07-.27.03-.14.07-.3.11-.47s.08-.34.12-.52c.04-.17.07-.32.09-.44l.08.03-.26,1.46s0,.04.02.07.04.06.09.08c.05.03.08.06.11.08.02.02.04.07.04.13s-.03.12-.09.17c-.06.06-.13.11-.22.15-.09.04-.2.08-.31.11-.12.03-.23.05-.35.06-.12.01-.26.02-.42.03-.16,0-.33,0-.49,0s-.33,0-.49,0c-.16,0-.29-.01-.4-.02-.26-.02-.44-.1-.55-.22-.11-.13-.17-.34-.17-.64v-4.37l-.8.26-.06-.09.86-.28v-1.89c.08,0,.15.01.23.01.07,0,.15.01.24.02v.06l-.14.07v1.62l.96-.31v-2.37Z" fill="#332527"/>
    <path d="M11.17,27.79c.09,0,.18.02.27.03.09.02.18.03.28.04v.05s-.17.04-.17.04c-.07.3-.15.58-.26.86-.11.27-.24.53-.39.78h1.15s.06-.01.08-.03c.02-.02.05-.05.08-.08.08.02.16.05.22.07.07.02.12.04.17.06-.02.09-.04.17-.06.24s-.03.15-.03.22v5.15c-.05.01-.1.02-.15.04-.05.01-.09.02-.12.02s-.06-.01-.08-.04v-.58h-1.54v1.25c-.05.01-.1.02-.15.04-.05.01-.09.02-.12.02-.04,0-.07-.02-.09-.04v-6.44c.07,0,.13.02.21.04.07.02.14.04.21.05h.12c.09-.29.16-.59.21-.89.05-.3.1-.6.15-.91ZM10.62,29.7v2.25h1.54v-2.25h-1.54ZM10.62,34.56h1.54v-2.5h-1.54v2.5ZM13.95,27.76c.1.01.19.03.3.04s.2.03.3.04v.04l-.18.04c-.05.23-.1.45-.15.68-.05.23-.11.45-.18.68h1.53s.06-.01.09-.03c.03-.02.06-.05.09-.08.09.02.17.05.25.07.07.02.14.04.19.06-.01.03-.03.07-.06.13s-.04.12-.04.19c-.01.7-.03,1.35-.04,1.96-.02.61-.04,1.16-.07,1.64-.03.49-.06.91-.1,1.27-.04.36-.09.64-.14.83-.05.22-.15.41-.29.56-.14.15-.28.23-.44.23s-.22-.07-.21-.21c0-.07-.03-.12-.11-.16-.08-.04-.18-.07-.3-.1l-.73-.17v-.07c.22.02.43.04.64.06s.42.03.65.03c.13,0,.22-.03.29-.09.07-.06.12-.16.15-.31.04-.18.08-.46.12-.83.04-.37.07-.81.09-1.32.02-.5.04-1.06.06-1.67.02-.61.03-1.24.04-1.89h-1.69c-.07.23-.14.46-.22.69-.08.23-.17.46-.27.69.26.3.51.64.73.99.23.36.42.72.57,1.1-.05.07-.1.14-.14.19-.05.06-.11.1-.2.13-.05-.17-.12-.35-.2-.56-.08-.2-.16-.41-.26-.62-.09-.21-.19-.42-.28-.62-.1-.2-.19-.38-.27-.53-.08.17-.16.33-.24.49s-.17.31-.26.46l-.1-.03c.12-.27.23-.58.34-.91s.21-.67.3-1.03c.1-.35.18-.71.25-1.07.07-.36.13-.7.18-1.02Z" fill="#332527"/>
    <path d="M.18,12.79c.29.17.57.37.84.6s.52.47.74.74c-.03.07-.06.14-.09.21-.03.07-.08.12-.14.17-.08-.11-.18-.25-.3-.4-.12-.15-.25-.31-.38-.47-.13-.16-.26-.31-.39-.46-.13-.15-.24-.27-.34-.36l.05-.03ZM.56,10.84c.27.17.55.36.82.58.27.22.52.46.75.71-.03.07-.06.14-.09.2-.03.06-.08.12-.14.17-.08-.11-.18-.23-.3-.38-.12-.15-.25-.3-.38-.45-.13-.15-.26-.3-.39-.44-.13-.14-.24-.26-.34-.35l.06-.04ZM.64,18.41c.25-.42.46-.83.63-1.25.17-.42.31-.81.43-1.18.11-.37.2-.71.26-1.02.06-.31.12-.57.16-.78l.06.03c-.02.23-.05.5-.09.82-.04.32-.1.68-.18,1.07s-.2.81-.34,1.25c-.14.44-.33.89-.56,1.34-.08-.04-.16-.08-.21-.12-.06-.04-.11-.09-.16-.15ZM3.27,10.68c.09.01.18.03.26.05.09.02.17.04.26.06v.04s-.18.03-.18.03c-.03.11-.06.21-.1.32-.04.11-.07.22-.12.33h2.83c.07,0,.12-.02.15-.07s.07-.09.11-.15c.08.04.17.08.26.13s.17.09.26.15v.04h-3.66c-.14.37-.31.76-.51,1.16s-.43.82-.69,1.25l-.09-.07c.17-.35.32-.69.45-1.02.13-.33.25-.63.35-.92s.18-.54.25-.77c.07-.23.12-.42.16-.57ZM3.42,12.35c.08,0,.16.02.23.04s.16.03.24.04h1.91s.06-.01.09-.03.06-.05.09-.08c.08.02.16.05.23.07.07.02.13.04.17.06-.03.05-.05.12-.07.19-.02.07-.03.11-.03.13l-.05,2.11h.3c.07,0,.12-.02.15-.07.04-.04.07-.09.11-.15.08.04.17.08.26.13.09.04.17.09.26.15v.04h-1.08c-.01.45-.03.87-.05,1.26-.02.39-.05.75-.08,1.06h.16c.07,0,.12-.02.15-.07s.07-.09.11-.15c.08.04.17.08.26.13.09.04.17.09.26.15v.04h-.95c-.02.23-.05.42-.07.59-.02.16-.05.29-.08.37-.06.18-.14.33-.23.47s-.2.2-.32.2c-.06,0-.11-.02-.14-.05-.03-.04-.05-.08-.05-.13,0-.07-.03-.11-.09-.13-.06-.02-.13-.05-.21-.07l-.46-.13v-.05c.14,0,.29.02.43.03.15.01.29.03.44.03.14,0,.23-.12.29-.35.02-.08.04-.18.06-.31.02-.13.04-.28.05-.45h-2.22c-.06,0-.11.02-.14.07-.03.04-.06.09-.09.14-.19-.04-.33-.13-.44-.27.05-.04.09-.08.13-.11.04-.03.05-.07.05-.12l.17-2.13h-.89l-.04-.11h.93l.21-2.52ZM5.75,17.3c.03-.3.06-.65.08-1.05.02-.39.04-.82.05-1.27h-2.33l-.18,2.32h2.38ZM3.74,12.54l-.18,2.33h2.33c.01-.38.02-.76.03-1.15,0-.39.01-.78.02-1.18h-2.2ZM4.15,15.14c.19.23.37.47.55.73.18.26.32.54.44.82-.03.06-.07.11-.11.16-.04.05-.1.09-.16.12-.04-.11-.09-.25-.15-.42s-.14-.33-.21-.5c-.07-.17-.15-.34-.22-.5-.07-.16-.14-.3-.2-.4l.06-.02ZM4.22,12.8c.19.21.38.43.56.67.18.24.34.49.46.76-.04.05-.07.1-.11.15-.04.05-.09.09-.16.12-.04-.11-.1-.24-.17-.39-.07-.15-.14-.3-.21-.46-.08-.16-.15-.31-.22-.46-.07-.15-.14-.27-.2-.37l.05-.03Z" fill="#332527"/>
    <path d="M3.35,24.51l.3.02c.1,0,.2.02.3.03v.06l-.18.07c0,.4,0,.78-.03,1.14s-.04.7-.07,1.02h2.57c.07,0,.12-.02.15-.07.04-.04.07-.09.11-.15.08.04.17.08.26.13.09.04.17.09.26.15v.04h-2.96c.06.55.16,1.08.31,1.6s.34,1.01.57,1.48.52.89.84,1.28c.33.39.7.73,1.12,1.01v.04c-.06.03-.1.06-.13.1s-.07.07-.12.1c-.04.03-.07.06-.1.08s-.06.04-.09.04c-.05,0-.1-.02-.13-.05-.36-.3-.69-.67-.96-1.09-.28-.42-.51-.89-.71-1.38-.19-.5-.35-1.02-.46-1.56-.11-.54-.18-1.09-.22-1.64h-.33c-.08.73-.2,1.38-.37,1.94-.17.57-.38,1.08-.64,1.55s-.57.89-.93,1.28-.77.77-1.23,1.14l-.11-.06c.4-.37.76-.75,1.07-1.15.31-.39.59-.82.82-1.28.23-.46.43-.97.58-1.53.16-.56.27-1.19.35-1.89H.57l-.04-.11h2.71c.07-.7.11-1.48.11-2.34Z" fill="#332527"/>
    <path d="M.51,39.03c.08,0,.16.02.23.04s.16.04.24.05h1.08s.06-.01.09-.03c.03-.02.06-.05.09-.08.08.02.16.05.22.07.07.02.12.04.17.06-.03.07-.05.14-.07.23-.02.09-.02.16-.02.22v5.9c-.05.01-.1.02-.15.04-.05.01-.09.02-.12.02-.04,0-.07-.01-.09-.04v-.53H.86v.82c-.05.01-.1.02-.15.04-.05.01-.09.02-.12.02s-.06-.02-.09-.04v-6.78ZM.86,39.24v2.81h1.33v-2.81H.86ZM.86,44.88h1.33v-2.73H.86v2.73ZM5.33,38.35c.08,0,.17.01.25.02.08,0,.16.02.25.03v.06l-.13.07v1.8h.47c.07,0,.12-.02.15-.07.04-.04.07-.09.11-.15.08.04.17.08.26.13s.17.09.26.15v.04h-1.25v5.65c0,.16-.05.3-.14.42-.1.12-.21.18-.33.18-.06,0-.11-.02-.14-.04s-.05-.07-.05-.12c0-.07-.03-.11-.09-.13-.06-.02-.13-.04-.21-.07l-.47-.12v-.05c.14,0,.27.02.4.03.13.01.27.03.4.03.1,0,.17-.03.21-.08.04-.05.06-.14.06-.26v-5.45h-2.24l-.04-.11h2.28v-1.98ZM3.31,41.19c.23.31.45.64.65.99.2.35.36.71.48,1.09-.05.07-.1.14-.14.2s-.11.11-.2.14c-.04-.15-.09-.33-.16-.55s-.15-.44-.23-.66-.16-.44-.25-.65c-.08-.21-.16-.39-.22-.53l.06-.02Z" fill="#332527"/>
    <path d="M6.04,52.9c.09.02.18.04.26.08s.17.07.26.12l-.02.05h-.16c-.09.22-.2.44-.34.67-.14.23-.29.46-.44.69-.16.23-.32.45-.5.66-.17.21-.34.41-.5.59h1.78c.07,0,.12-.02.15-.07.04-.04.07-.09.11-.15.08.04.17.08.26.13.09.04.17.09.26.15v.04h-2.43v3.6c0,.19.04.32.11.39s.19.11.35.13c.04,0,.09,0,.16,0,.07,0,.14,0,.22,0s.15,0,.21,0c.07,0,.12,0,.16-.01.19-.02.3-.07.36-.13s.1-.16.13-.3c.02-.06.04-.16.08-.29.03-.13.06-.28.09-.44.03-.16.06-.32.09-.47.03-.16.06-.29.08-.4l.08.02-.17,1.42s0,.07.02.09c.02.02.06.05.1.08.05.04.09.06.1.08.01.01.02.06.03.13-.03.14-.13.26-.3.38-.17.11-.38.18-.63.21-.05,0-.12.01-.2.01-.09,0-.18,0-.27,0h-.26c-.08,0-.15,0-.2,0-.26-.02-.44-.09-.56-.21s-.17-.33-.17-.63v-3.64h-1.4v1.17c0,.42-.06.81-.18,1.17-.12.36-.29.68-.52.97-.22.29-.5.56-.82.79-.32.24-.68.44-1.08.62l-.1-.04c.38-.22.72-.46,1-.7.29-.25.53-.52.72-.81.19-.29.33-.6.43-.94.1-.33.14-.7.14-1.11v-1.12H.34l-.04-.11h3.23v-3.65c.08,0,.17.01.26.02.09,0,.18.02.27.03v.06l-.15.07v3.47h.56c.14-.2.29-.42.44-.66.15-.24.3-.48.44-.73.14-.25.27-.5.39-.75.12-.25.22-.49.31-.71ZM.87,52.92c.32.29.63.62.92.97.29.35.54.73.75,1.12-.04.07-.09.14-.13.2-.04.06-.11.11-.19.15-.07-.16-.17-.34-.29-.56-.12-.22-.25-.44-.38-.67-.13-.23-.26-.45-.39-.66-.13-.21-.25-.39-.35-.53l.06-.02Z" fill="#332527"/>
    <path d="M1.55,66c.16.02.34.07.53.15v.04l-.15.02c-.08.24-.17.48-.29.72h1.28c.07,0,.12-.02.15-.07s.07-.09.11-.15c.08.04.17.08.26.13.09.04.17.09.26.15v.04H1.59c-.16.3-.34.58-.55.85-.21.27-.44.53-.71.78l-.06-.1c.14-.18.28-.38.41-.59.13-.22.25-.43.37-.66s.21-.45.3-.68c.09-.23.15-.44.2-.64ZM3.2,71.16c-.05-.17-.09-.36-.13-.55-.04-.19-.07-.4-.1-.62l-2.49.22-.04-.1,2.53-.22c-.02-.17-.05-.34-.07-.52s-.04-.37-.05-.58c.08,0,.17.01.26.02.09,0,.18.02.27.03v.06l-.13.07c.01.16.03.31.04.46.01.15.03.3.06.44l2.58-.23c.07,0,.12-.03.15-.08.03-.05.06-.1.09-.15.09.03.18.06.26.1.09.04.18.08.27.13v.04s-3.34.3-3.34.3c.03.21.06.41.1.6.04.19.08.37.13.55l2.8-.3c.07-.01.11-.04.14-.09.03-.05.06-.1.09-.15.09.03.18.06.27.09.09.03.18.07.28.12v.04s-3.55.38-3.55.38c.14.54.32.96.53,1.26l.08.13c.57-.38,1.1-.82,1.59-1.32.07.03.14.07.23.13.09.05.16.1.22.15l-.03.05-.19-.02c-.25.25-.51.48-.77.69s-.54.41-.82.58c.27.27.58.49.94.65.36.16.74.29,1.16.39.03-.11.06-.23.09-.36.03-.13.06-.26.08-.39.03-.13.05-.25.08-.38.02-.12.04-.23.06-.34l.08.03-.09,1.25c0,.12,0,.18,0,.18.2.08.3.18.28.28-.01.09-.07.14-.16.16s-.21.02-.33,0c-.48-.04-.94-.17-1.38-.4-.44-.23-.82-.53-1.15-.89-.56.32-1.16.58-1.78.78-.63.21-1.29.38-2,.52l-.04-.1c.68-.19,1.31-.4,1.91-.63.6-.24,1.16-.52,1.69-.84-.02-.03-.04-.06-.05-.08s-.03-.05-.04-.08c-.1-.16-.2-.35-.3-.58-.1-.23-.19-.5-.27-.82l-2.86.3-.04-.1,2.88-.3ZM1.99,67.09c.26.23.47.42.63.57.16.16.31.33.45.51-.05.07-.1.13-.15.17-.05.04-.11.08-.16.11-.08-.16-.19-.36-.32-.61s-.3-.49-.5-.72l.06-.03ZM4.53,65.99c.09.01.18.03.27.07.09.03.18.06.26.09v.04s-.15.03-.15.03c-.09.23-.2.47-.34.72h1.8c.07,0,.12-.02.15-.07.04-.04.07-.09.11-.15.08.04.17.08.25.13.09.04.18.09.26.15v.04h-2.64c-.13.23-.28.45-.43.67-.16.22-.33.43-.52.63l-.06-.08c.11-.16.22-.34.33-.53.1-.19.2-.39.29-.6.09-.2.17-.4.24-.6.07-.2.13-.38.18-.55ZM4.11,68.46c.29.16.55.31.78.44.23.13.43.27.62.41-.02.06-.05.12-.08.17-.03.05-.07.09-.13.12-.06-.06-.14-.13-.23-.22-.09-.09-.19-.18-.3-.27s-.23-.19-.35-.3c-.12-.1-.24-.2-.35-.3l.04-.05ZM4.9,67.08c.13.11.25.21.36.3.11.09.21.17.31.26.09.08.18.16.26.24.08.08.16.17.24.26-.03.07-.07.12-.11.17-.04.05-.1.09-.16.13-.05-.08-.1-.17-.17-.27-.07-.1-.14-.21-.22-.33s-.17-.24-.26-.36c-.1-.12-.19-.24-.3-.35l.05-.04Z" fill="#332527"/>
    <g>
      <path d="M10.43,41.19h2.45v.12h-1.09v1.36h1.09v.13h-2.45v-.13h1.25v-1.36h-1.25v-.12Z" fill="#332527"/>
      <path d="M10.43,43.62h2.45v.13l-1.79,1.08-.48.28v.02c.12,0,.23-.01.35-.02.11,0,.23,0,.34,0h1.58v.12h-2.45v-.14l1.78-1.08.48-.28h0c-.11,0-.23,0-.33,0-.11,0-.22,0-.34,0h-1.6v-.12Z" fill="#332527"/>
      <path d="M10.38,46.84c0-.1.01-.2.04-.29s.08-.18.15-.26.17-.14.29-.18c.12-.05.28-.07.47-.07h1.53v.13h-1.51c-.22,0-.4.03-.52.1s-.22.15-.27.25c-.05.1-.08.21-.08.33s.03.23.08.34c.05.1.14.19.27.25.13.07.3.1.52.1h1.51v.12h-1.53c-.19,0-.35-.02-.47-.07-.12-.05-.22-.11-.29-.19-.07-.08-.12-.17-.15-.26-.03-.1-.04-.19-.04-.29Z" fill="#332527"/>
      <path d="M11.29,48.24h.12v.81h-.12v-.81Z" fill="#332527"/>
      <path d="M10.43,50.02h2.34v-.79h.11v1.71h-.11v-.79h-2.34v-.13Z" fill="#332527"/>
      <path d="M10.43,51.48h1.78v.12h-1.78v-.12ZM12.65,51.55s.01-.07.04-.09c.02-.02.06-.03.1-.03.04,0,.07.01.09.03.02.02.04.05.04.09,0,.03-.01.06-.04.09-.02.02-.05.04-.09.04-.04,0-.08-.01-.1-.04-.02-.02-.04-.05-.04-.09Z" fill="#332527"/>
      <path d="M10.43,52.39h1.78v.1l-.28.02h0c.09.09.17.18.23.28.06.1.09.2.09.29,0,.15-.03.26-.1.33-.07.08-.16.13-.27.16.11.11.2.21.27.31.07.1.1.2.1.3,0,.17-.06.3-.17.39s-.28.13-.51.13h-1.14v-.12h1.13c.2,0,.34-.03.44-.1s.15-.17.15-.32c0-.09-.03-.18-.09-.27-.06-.09-.15-.19-.26-.29h-1.36v-.12h1.13c.2,0,.34-.03.44-.1s.15-.17.15-.32c0-.08-.03-.17-.09-.27-.06-.09-.15-.19-.26-.29h-1.36v-.12Z" fill="#332527"/>
      <path d="M10.38,56.12c0-.15.04-.28.11-.41.07-.12.18-.22.32-.29.14-.07.3-.11.5-.11.15,0,.28.02.39.06.11.04.21.1.29.17.08.07.14.15.19.25.04.09.06.19.06.28,0,.14-.03.26-.09.36-.06.1-.16.18-.28.23-.12.06-.27.08-.45.08h-.05s-.04,0-.07,0v-1.3c-.16,0-.29.03-.42.09-.12.06-.22.14-.29.24-.07.1-.11.22-.11.36,0,.1.01.19.04.27.03.08.07.15.12.22l-.1.05c-.04-.07-.08-.14-.12-.23-.04-.08-.05-.19-.05-.32ZM11.42,55.44v1.19c.24,0,.42-.05.54-.15s.18-.24.18-.4c0-.11-.03-.21-.09-.3s-.14-.17-.25-.23c-.11-.06-.24-.1-.39-.11Z" fill="#332527"/>
      <path d="M10.43,57.33h2.45v.12h-2.34v1.15h-.11v-1.27Z" fill="#332527"/>
      <path d="M10.38,59.73c0-.15.04-.28.11-.41.07-.12.18-.22.32-.29.14-.07.3-.11.5-.11.15,0,.28.02.39.06.11.04.21.1.29.17.08.07.14.15.19.25.04.09.06.19.06.28,0,.14-.03.26-.09.36-.06.1-.16.18-.28.23-.12.06-.27.08-.45.08h-.05s-.04,0-.07,0v-1.3c-.16,0-.29.03-.42.09-.12.06-.22.14-.29.24-.07.1-.11.22-.11.36,0,.1.01.19.04.27.03.08.07.15.12.22l-.1.05c-.04-.07-.08-.14-.12-.23-.04-.08-.05-.19-.05-.32ZM11.42,59.04v1.19c.24,0,.42-.05.54-.15s.18-.24.18-.4c0-.11-.03-.21-.09-.3s-.14-.17-.25-.23c-.11-.06-.24-.1-.39-.11Z" fill="#332527"/>
      <path d="M10.38,61.35c0-.11.02-.2.06-.26.04-.06.1-.1.18-.13.08-.02.17-.04.27-.04h1.19v-.28h.09l.02.28h.52v.12h-.52v.53h-.11v-.53h-1.21c-.11,0-.21.02-.28.06-.07.04-.11.12-.11.25,0,.03,0,.07.02.11.01.04.02.08.04.11l-.1.04c-.02-.05-.03-.1-.05-.15-.01-.05-.02-.09-.02-.12Z" fill="#332527"/>
      <path d="M10.38,62.48c0-.11.02-.2.06-.26.04-.06.1-.1.18-.13.08-.02.17-.04.27-.04h1.19v-.28h.09l.02.28h.52v.12h-.52v.53h-.11v-.53h-1.21c-.11,0-.21.02-.28.06-.07.04-.11.12-.11.25,0,.03,0,.07.02.11.01.04.02.08.04.11l-.1.04c-.02-.05-.03-.1-.05-.15-.01-.05-.02-.09-.02-.12Z" fill="#332527"/>
      <path d="M10.38,63.84c0-.15.04-.28.11-.41.07-.12.18-.22.32-.29s.3-.11.5-.11c.15,0,.28.02.39.06s.21.1.29.17c.08.07.14.16.19.25.04.09.06.19.06.29,0,.14-.03.26-.09.36s-.16.18-.28.23-.27.08-.45.08h-.05s-.04,0-.07,0v-1.3c-.16,0-.29.03-.42.09-.12.06-.22.14-.29.24s-.11.22-.11.36c0,.1.01.19.04.27.03.08.07.15.12.22l-.1.05c-.04-.07-.08-.14-.12-.23-.04-.08-.05-.19-.05-.32ZM11.42,63.16v1.19c.24,0,.42-.05.54-.15.12-.1.18-.24.18-.4,0-.11-.03-.21-.09-.3-.06-.09-.14-.17-.25-.23-.11-.06-.24-.1-.39-.11Z" fill="#332527"/>
      <path d="M10.43,65.04h1.78v.1l-.33.02h0c.11.06.2.14.27.22.07.08.11.18.11.29,0,.03,0,.06,0,.09,0,.03-.02.05-.03.08l-.11-.03s.02-.05.02-.07c0-.02,0-.05,0-.08,0-.08-.04-.16-.11-.25-.07-.09-.19-.17-.37-.24h-1.23v-.12Z" fill="#332527"/>
    </g>
    <polyline points="16.18 68.7 16.18 74.37 11.09 74.37" fill="none" stroke="#231815" stroke-miterlimit="10" stroke-width=".25"/>
    <polyline points=".12 5.8 .13 .13 5.21 .13" fill="none" stroke="#231815" stroke-miterlimit="10" stroke-width=".25"/>
  </g>
</svg>